HIERARCHY
ROOT Hips
{
  OFFSET 0 0 0
  CHANNELS 6 Xposition Yposition Zposition Zrotation Yrotation Xrotation
  JOINT LeftThigh
  {
    OFFSET 8.409438 0 -5.917753
    CHANNELS 3 Zrotation Yrotation Xrotation
    JOINT LeftLeg
    {
      OFFSET 0 0 -42.358652
      CHANNELS 3 Zrotation Yrotation Xrotation
      JOINT LeftFoot
      {
        OFFSET 0 0 -39.357303
        CHANNELS 3 Zrotation Yrotation Xrotation
      }
    }
  }
  JOINT RightThigh
  {
    OFFSET -8.409438 0 -5.917753
    CHANNELS 3 Zrotation Yrotation Xrotation
    JOINT RightLeg
    {
      OFFSET 0 0 -42.358652
      CHANNELS 3 Zrotation Yrotation Xrotation
      JOINT RightFoot
      {
        OFFSET 0 0 -39.357303
        CHANNELS 3 Zrotation Yrotation Xrotation
      }
    }
  }
  JOINT SpineLow
  {
    OFFSET 0 0 4.719101
    CHANNELS 3 Zrotation Yrotation Xrotation
    JOINT SpineMid
    {
      OFFSET 0 0 12.899191
      CHANNELS 3 Zrotation Yrotation Xrotation
      JOINT Chest
      {
        OFFSET 0 0 12.899191
        CHANNELS 3 Zrotation Yrotation Xrotation
        JOINT LeftShoulder
        {
          OFFSET 7.550562 1.41573 9.438202
          CHANNELS 3 Zrotation Yrotation Xrotation
          JOINT LeftArm
          {
            OFFSET 9.155056 0 4.247191
            CHANNELS 3 Zrotation Yrotation Xrotation
            JOINT LeftForearm
            {
              OFFSET 0 0 25.771955
              CHANNELS 3 Zrotation Yrotation Xrotation
              JOINT LeftHand
              {
                OFFSET 0 0 25.197169
                CHANNELS 3 Zrotation Yrotation Xrotation
              }
            }
          }
        }
        JOINT RightShoulder
        {
          OFFSET -7.550562 1.41573 9.438202
          CHANNELS 3 Zrotation Yrotation Xrotation
          JOINT RightArm
          {
            OFFSET -9.155056 0 4.247191
            CHANNELS 3 Zrotation Yrotation Xrotation
            JOINT RightForearm
            {
              OFFSET 0 0 -25.771955
              CHANNELS 3 Zrotation Yrotation Xrotation
              JOINT RightHand
              {
                OFFSET 0 0 -25.197169
                CHANNELS 3 Zrotation Yrotation Xrotation
              }
            }
          }
        }
        JOINT Neck
        {
          OFFSET 0 0 15.101124
          CHANNELS 3 Zrotation Yrotation Xrotation
          JOINT Head
          {
            OFFSET 0 0 11.325843
            CHANNELS 3 Zrotation Yrotation Xrotation
            End Site
            {
              OFFSET 0 0 14.157303
            }
          }
        }
      }
    }
  }
}
MOTION
Frames: 13
Frame Time: 0.0
0.0  93.25843  0.0  -5.024955  19.897911  -87.368195  1.779507  -17.343246  -10.185902  -10.464505  0.537095  10.605974  5.392596  0.51575  3.585875  -22.788098  -1.045913  -5.49422  -20.676819  7.596807  4.917668  1.054042  2.323778  0.105512  3.496997  -1.947445  -0.157302  9.59025  -5.287525  -0.712028  9.59025  -5.287525  -0.712028  -7.528712  26.996523  2.985743  -179.694589  29.458845  -170.667671  -6.161252  16.937425  111.47802  44.186426  10.57451  -3.215745  -6.131061  -3.229949  26.335815  63.651754  44.442618  33.286565  -24.999043  28.830155  -77.355425  64.926871  -19.422908  56.297094  -32.170934  1.797341  -0.79646  -24.123931  1.394598  -0.504165  
0.0  93.25843  0.0  -5.009761  19.136618  -87.17579  2.932677  -17.18569  -10.370333  -10.661495  0.56044  10.631988  5.168889  0.553977  3.418845  -21.958817  -1.470078  -6.091456  -20.71247  8.391321  5.413349  1.801848  2.399825  0.240797  3.832071  -1.873057  -0.068237  10.499087  -5.094184  -0.483629  10.499087  -5.094184  -0.483629  -6.588805  26.341727  3.086661  -177.386104  28.705046  -173.390959  -7.625225  24.367152  111.731393  34.315481  1.215768  -3.842362  -4.852517  -3.377493  26.119726  63.397658  47.686192  32.241864  -18.534411  25.913997  -65.351035  58.655044  -19.455659  59.613413  -32.977477  1.324607  -0.901713  -24.730121  1.045822  -0.60675  
0.0  93.25843  0.0  -5.036198  17.275473  -86.967019  4.760381  -16.954846  -10.623887  -10.617373  0.533533  10.952187  5.182164  0.607758  3.410665  -20.925685  -1.658963  -6.886531  -20.126261  8.679772  6.121645  1.935633  2.551787  0.220538  4.324304  -1.799407  -0.080078  11.845967  -4.886073  -0.540506  11.845967  -4.886073  -0.540506  -6.217729  25.96611  4.392155  -175.730055  27.097641  -175.642385  -11.141667  34.298076  108.962675  24.79355  -7.3608  0.262855  -4.122321  -3.601022  26.81018  63.954521  51.228068  30.490579  -12.119925  22.449503  -51.643364  53.239145  -21.537523  55.347643  -33.850673  1.275354  -0.431621  -25.386069  0.984062  -0.253852  
0.0  93.25843  0.0  -5.106676  15.301151  -86.992035  6.536885  -16.61433  -10.587607  -10.737734  0.369097  11.32014  4.216178  0.806794  2.738843  -20.599982  -1.629875  -7.435821  -19.345952  8.720011  6.821894  2.175034  2.626796  0.238574  4.838403  -1.710554  -0.088084  13.25163  -4.636483  -0.582272  13.251631  -4.636483  -0.582272  -7.27157  25.803309  5.757926  -174.021864  24.041692  -177.005885  -16.4135  43.796015  103.635617  20.882849  -10.56395  5.468813  -4.129594  -4.453224  27.396508  66.696547  54.685289  29.464723  -6.760315  17.826856  -36.618227  50.534001  -25.39001  42.030777  -34.728857  1.382746  0.412927  -26.046313  1.017468  0.38992  
0.0  93.25843  0.0  -5.191799  13.856684  -87.126696  7.639759  -16.283164  -10.391067  -11.031636  0.189739  11.683167  4.430216  0.83089  2.819781  -21.219562  -1.761121  -7.71814  -18.787654  8.88654  7.193344  2.54829  2.635007  0.222837  5.188703  -1.621102  -0.054211  14.205827  -4.396049  -0.495179  14.205827  -4.396049  -0.495179  -8.173439  25.499251  6.10793  -173.258647  19.480373  -178.202478  -19.281241  48.621917  100.268365  25.658497  -11.249009  5.845908  -4.037881  -6.160639  28.285807  70.333261  60.006349  28.840827  0.046445  10.712996  -20.870345  48.620851  -29.493908  25.644701  -35.187567  1.521686  1.241116  -26.392321  1.07392  1.022626  
0.0  93.25843  0.0  -5.28993  12.699836  -87.362452  8.121251  -16.14102  -10.116876  -11.058156  0.121182  12.124516  4.678038  0.813859  2.977466  -22.308778  -2.113305  -7.646469  -15.76938  9.604999  7.880574  0.527473  1.899459  -0.170259  4.946723  -1.737326  0.087382  13.536563  -4.743797  -0.117308  13.536563  -4.743797  -0.117308  -4.586293  25.666671  6.21804  -173.844438  14.79098  -179.166284  -19.654355  48.560443  100.91066  32.425091  -12.21614  0.682549  0.007932  -8.316482  29.793586  69.730673  69.03698  26.871878  13.358098  -1.691661  -6.714083  47.230125  -25.971479  11.733564  -33.344384  2.232923  1.374394  -25.010257  1.605286  1.156864  
0.0  93.25843  0.0  -5.392415  12.356332  -87.550548  7.110672  -16.400467  -10.043077  -10.30393  0.313067  12.897422  4.762375  0.814733  3.090457  -24.236228  -2.475023  -7.436404  -15.191747  9.845952  7.65062  0.966873  1.821049  -0.179433  4.758833  -2.021274  -0.003408  13.035925  -5.499643  -0.40757  13.035925  -5.499643  -0.40757  -1.103694  26.39757  7.978198  -173.816749  13.366148  -179.085299  -20.576573  45.482923  101.068098  30.602836  -14.122021  -3.640787  2.870724  -9.953498  30.731187  65.56807  66.044037  26.09128  17.399704  1.721753  0.803065  55.26921  -28.837895  0.779406  -31.910852  3.507519  1.653702  -23.935287  2.552489  1.428164  
0.0  93.25843  0.0  -5.640491  12.543019  -87.317475  5.683852  -16.950017  -10.538567  -9.465487  0.698036  13.789029  4.825758  0.857624  3.076386  -26.450184  -2.889602  -7.625092  -14.416571  9.758784  7.652009  1.307905  1.75468  -0.192208  5.412238  -2.25451  -0.113622  14.843487  -6.101479  -0.814911  14.843488  -6.101479  -0.814911  -3.819114  27.674434  7.420362  -171.708602  14.911116  -178.520469  -20.208486  46.360401  100.765719  29.707849  -15.583615  -5.100562  0.326974  -10.022301  28.17122  62.134612  62.336889  27.882699  18.956804  7.64416  2.020565  61.414527  -31.323679  -3.997414  -33.781772  3.52082  1.460145  -25.336855  2.569153  1.29466  
0.0  93.25843  0.0  -5.78657  12.751972  -87.010414  4.642231  -17.500006  -11.205369  -8.963938  1.276127  14.620621  5.022881  0.896313  3.021404  -27.878755  -3.088776  -7.866011  -13.8783  9.445879  7.801016  1.572544  1.746595  -0.224731  5.704924  -2.244387  -0.278923  15.659884  -6.029637  -1.28946  15.659883  -6.029637  -1.28946  -2.8997  28.473177  7.948353  -170.331261  16.516556  -177.14999  -19.546938  47.201793  99.860178  32.892927  -14.00323  -4.728299  -0.830915  -9.526444  27.138161  61.864583  61.586094  29.589214  19.741902  10.015869  -1.104475  51.014489  -31.710665  1.938804  -34.544211  2.6195  2.118334  -25.913032  1.851762  1.743543  
0.0  93.25843  0.0  -5.872504  12.538835  -87.018684  4.417295  -17.934565  -11.583321  -8.781794  1.755335  15.245913  5.307656  0.970669  3.060678  -28.051452  -2.951165  -7.824374  -13.784536  9.142786  8.082762  1.790512  1.694535  -0.285452  5.932449  -2.163602  -0.317763  16.282685  -5.795048  -1.395526  16.282684  -5.795047  -1.395526  -1.487283  30.052021  8.856867  -170.207406  18.041589  -175.105235  -18.458433  44.068547  99.984317  32.552409  -12.882219  -4.326373  -2.504042  -6.203419  28.849261  65.304312  61.886282  29.466979  10.658548  8.697309  -6.941172  42.123346  -27.732779  11.056166  -35.02877  1.547566  3.085852  -26.278562  0.987366  2.412587  
0.0  93.25843  0.0  -5.910247  12.081452  -87.178715  4.930554  -18.067074  -11.688807  -8.805984  1.898671  15.5656  5.342664  1.034856  3.077527  -27.139019  -2.612941  -7.570814  -14.13956  9.046396  8.20728  1.787447  1.491217  -0.245748  5.934485  -2.045378  -0.291542  16.280412  -5.480568  -1.294895  16.280411  -5.480568  -1.294895  -2.127601  30.434964  6.916356  -170.323338  17.455328  -175.37028  -17.604866  40.745171  100.823125  29.741406  -14.068398  -6.212504  -3.045373  -5.189841  28.885921  71.292191  60.066852  32.825829  -2.12555  5.96988  -14.211903  44.310456  -24.447154  19.815487  -34.562811  1.054089  4.278419  -25.930269  0.550277  3.280964  
0.0  93.25843  0.0  -5.8336  11.61955  -87.435779  6.043091  -17.889626  -11.389342  -9.166522  1.816051  15.487748  5.141112  1.093101  3.014059  -25.739192  -2.28552  -7.269856  -14.702724  9.054057  8.128773  0.928778  0.992635  -0.201342  5.680242  -1.940023  -0.187109  15.571399  -5.225278  -0.964757  15.571399  -5.225278  -0.964758  -3.957586  30.835824  5.568463  -169.946306  15.872395  -174.693288  -17.991356  41.731588  101.84268  31.353399  -14.729045  -8.083772  -2.889716  -5.940846  28.552395  76.432339  59.521427  36.306734  -9.168833  5.0822  -19.106582  51.320134  -24.674486  23.512501  -32.966158  1.416807  5.244214  -24.73768  0.782018  4.023476  
0.0  93.25843  0.0  -5.533869  10.907914  -87.649598  7.73344  -17.409006  -10.89376  -9.878487  1.640934  15.162554  4.909213  1.195097  2.939225  -24.128304  -2.05744  -7.025896  -15.089618  9.384137  8.141191  0.757875  1.01487  -0.174045  5.26587  -1.920162  -0.141992  14.432445  -5.189021  -0.804961  14.432444  -5.189021  -0.804961  -3.79275  31.003992  4.767504  -170.555484  14.945261  -174.67165  -19.663753  43.333672  100.590226  33.632262  -13.958825  -7.818995  -2.488537  -6.509861  27.841878  81.346951  58.483922  38.332445  -7.254397  7.683534  -19.504556  50.351859  -24.947997  24.200322  -30.422206  2.855541  6.323609  -22.844326  1.832098  4.898616  
